HIERARCHY
ROOT hip
{
	OFFSET 0.000000 0.000000 0.000000 
	CHANNELS 6 Xposition Yposition Zposition Xrotation Zrotation Yrotation
	JOINT abdomen
	{
		OFFSET 0.000000 3.402643 0.000000 
		CHANNELS 3 Xrotation Zrotation Yrotation
		JOINT chest
		{
			OFFSET 0.000000 8.438565 -0.680529 
			CHANNELS 3 Xrotation Zrotation Yrotation
			JOINT neck
			{
				OFFSET 0.000000 10.207942 -0.272212 
				CHANNELS 3 Xrotation Zrotation Yrotation
				JOINT head
				{
					OFFSET 0.000000 3.130431 0.000000 
					CHANNELS 3 Xrotation Zrotation Yrotation
					End Site
					{
						OFFSET 0.000000 3.130435 0.000000 
					}
				}
			}
			JOINT lCollar
			{
				OFFSET 3.470700 6.669187 -0.816635 
				CHANNELS 3 Yrotation Zrotation Xrotation
				JOINT lShldr
				{
					OFFSET 3.198488 0.000000 0.000000 
					CHANNELS 3 Zrotation Yrotation Xrotation
					JOINT lForeArm
					{
						OFFSET 10.139888 0.000000 0.000000 
						CHANNELS 3 Yrotation Zrotation Xrotation
						JOINT lHand
						{
							OFFSET 8.370511 0.000000 0.000000 
							CHANNELS 3 Zrotation Yrotation Xrotation
							End Site
							{
								OFFSET 4.083176 0.000000 0.000000 
							}
						}
					}
				}
			}
			JOINT rCollar
			{
				OFFSET -3.470700 6.669187 -0.816635 
				CHANNELS 3 Yrotation Zrotation Xrotation
				JOINT rShldr
				{
					OFFSET -3.198488 0.000000 0.000000 
					CHANNELS 3 Zrotation Yrotation Xrotation
					JOINT rForeArm
					{
						OFFSET -10.139888 0.000000 0.000000 
						CHANNELS 3 Yrotation Zrotation Xrotation
						JOINT rHand
						{
							OFFSET -8.370511 0.000000 0.000000 
							CHANNELS 3 Zrotation Yrotation Xrotation
							End Site
							{
								OFFSET -4.083176 0.000000 0.000000 
							}
						}
					}
				}
			}
		}
	}
	JOINT lThigh
	{
		OFFSET 5.308129 -1.633274 1.361059 
		CHANNELS 3 Xrotation Zrotation Yrotation
		JOINT lShin
		{
			OFFSET -2.041588 -20.007561 0.000000 
			CHANNELS 3 Xrotation Zrotation Yrotation
			JOINT lFoot
			{
				OFFSET 0.000000 -19.190928 -1.224953 
				CHANNELS 3 Xrotation Yrotation Zrotation
				End Site
				{
					OFFSET 0.000000 -2.449906 4.627600 
				}
			}
		}
	}
	JOINT rThigh
	{
		OFFSET -5.308129 -1.633274 1.361059 
		CHANNELS 3 Xrotation Zrotation Yrotation
		JOINT rShin
		{
			OFFSET 2.041588 -20.007561 0.000000 
			CHANNELS 3 Xrotation Zrotation Yrotation
			JOINT rFoot
			{
				OFFSET 0.000000 -19.190928 -1.224953 
				CHANNELS 3 Xrotation Yrotation Zrotation
				End Site
				{
					OFFSET 0.000000 -2.449906 4.627600 
				}
			}
		}
	}
}
MOTION
Frames: 15
Frame Time: 0.016667
-0.151294 51.234089 -17.993362 -11.737690 -5.048882 -8.706723 32.250690 4.380036 1.829055 0.130648 2.373039 -0.068234 -12.018183 -6.423223 1.154176 17.432428 -7.433270 4.962531 -13.051040 -16.042807 -0.857796 -59.784557 7.681622 -15.521545 -28.333403 -5.000000 35.844170 -3.641815 -2.587380 -11.054029 16.524744 11.559172 -0.604822 61.720131 -1.775010 -6.229545 22.514830 5.000000 22.797724 20.891039 -21.283314 -1.780257 -8.835903 10.525187 -0.265798 17.606377 -6.796949 -2.493055 -4.913232 9.080437 -2.767588 26.324690 -7.216306 -4.802617 40.345150 2.068610 1.843261 18.914040 1.366509 9.042843 
-0.091088 51.619179 -16.827383 -11.849340 -6.136092 -8.938732 32.494938 5.459928 2.126507 0.207439 2.412098 -0.117032 -11.838908 -6.781885 1.199733 17.387329 -7.786695 5.499377 -13.034736 -16.247591 -0.868358 -59.874680 7.603289 -15.668601 -27.411940 -5.000000 35.951286 -4.498363 -1.934407 -9.945850 16.564230 11.598181 -0.606843 61.523838 -2.027735 -6.687650 21.808638 5.000000 23.177340 20.938063 -21.391819 -1.733469 -6.853150 11.255833 0.888376 17.648523 -6.544202 -2.395504 -6.252204 7.881089 -2.243979 23.230778 -6.152018 -4.228599 45.325787 1.729933 1.872485 17.078203 0.824436 8.961235 
-0.051403 51.950619 -15.698885 -11.972573 -6.847186 -9.099797 32.718742 6.106376 2.276053 0.223376 2.480444 -0.234560 -11.615856 -6.968252 1.208309 17.386751 -8.131262 5.888670 -13.044500 -16.247589 -0.868357 -59.997311 7.521862 -15.700158 -26.624886 -5.000000 36.005093 -5.279738 -1.381832 -8.865582 16.585148 11.546634 -0.613486 61.424950 -2.274156 -7.090619 21.330048 5.000000 23.491564 21.029305 -21.498117 -1.651603 -4.814643 11.679482 1.956917 17.345394 -6.406424 -2.279785 -7.287844 6.875918 -1.950615 20.353954 -5.282109 -3.960598 49.246021 1.619919 2.030506 15.330189 0.597340 8.782564 
-0.025397 52.246269 -14.595401 -12.105520 -7.327107 -9.217287 32.926586 6.459643 2.348523 0.198574 2.578074 -0.390699 -11.359817 -7.040251 1.189787 17.423410 -8.466531 6.199435 -13.081253 -16.101311 -0.860813 -60.147678 7.429770 -15.658417 -25.930710 -5.000000 36.024380 -5.998635 -0.895298 -7.810834 16.593742 11.439358 -0.607930 61.404133 -2.515168 -7.461386 21.013420 5.000000 23.752743 21.144583 -21.611025 -1.564046 -2.723835 11.917593 3.021292 16.778482 -6.329110 -2.215868 -8.195715 6.017634 -1.815689 17.632938 -4.579906 -3.850213 52.476139 1.649347 2.277000 13.666245 0.729760 8.630724 
-0.004229 52.528168 -13.500571 -12.236350 -7.730680 -9.284340 33.121960 6.760565 2.397712 0.173031 2.665923 -0.557031 -11.092159 -7.084763 1.156104 17.464243 -8.772564 6.481419 -13.137106 -15.925773 -0.851752 -60.266727 7.353170 -15.584820 -25.283987 -5.000000 36.008858 -6.696168 -0.422805 -6.774377 16.590609 11.325122 -0.590772 61.374992 -2.757969 -7.831410 20.770248 5.000000 24.000875 21.315508 -21.710611 -1.499930 -0.625185 12.074941 4.029708 16.110544 -6.271100 -2.096361 -9.004285 5.156092 -1.763835 14.937653 -3.886139 -3.884435 55.380508 1.708139 2.601284 12.100956 0.846041 8.473181 
-0.002412 52.755062 -12.440351 -12.327708 -7.878069 -9.159924 33.214794 6.800172 2.309236 0.115236 2.734197 -0.781903 -10.783488 -7.032733 1.109020 17.583288 -8.963824 6.643288 -13.249801 -15.633205 -0.834000 -60.306999 7.285832 -15.406138 -24.874207 -5.000000 35.889652 -7.332330 -0.092794 -5.777396 16.579716 11.217850 -0.585227 61.328247 -3.033724 -8.173271 20.845573 5.000000 24.194557 21.748648 -21.718693 -1.591271 1.464747 12.030916 4.774897 15.055162 -6.329003 -1.974782 -9.543941 4.471729 -1.983254 12.446060 -3.358123 -4.308663 56.935051 1.914754 3.170103 10.710664 1.195502 8.506092 
-0.000591 52.981956 -11.380136 -12.419709 -8.025522 -9.035587 33.299274 6.854297 2.236254 0.066928 2.792675 -1.016542 -10.473542 -6.972516 1.049697 17.700062 -9.164589 6.805234 -13.362443 -15.330891 -0.818402 -60.349010 7.223625 -15.235729 -24.466494 -5.000000 35.757298 -7.959480 0.270067 -4.780196 16.568836 11.110576 -0.579678 61.273251 -3.320250 -8.508816 20.920294 5.000000 24.387856 22.167740 -21.730654 -1.663566 3.553178 11.989777 5.500920 13.976539 -6.405117 -1.871887 -10.066711 3.729752 -2.238482 9.940570 -2.861622 -4.779327 58.498932 2.113543 3.762640 9.342343 1.516414 8.538180 
-0.011385 53.150143 -10.346663 -12.477004 -7.946905 -8.649003 33.305431 6.755535 1.997524 0.008130 2.899952 -1.290257 -10.174482 -6.901166 0.998504 17.830811 -9.241413 6.846908 -13.504056 -14.999309 -0.798741 -60.296444 7.176322 -14.980910 -24.293356 -5.000000 35.570274 -8.495236 0.439407 -3.876383 16.537836 10.944789 -0.571101 61.190205 -3.603592 -8.846519 21.264215 5.000000 24.588243 22.690977 -21.724289 -1.912324 5.553351 11.811612 5.999900 12.702866 -6.524340 -1.761793 -10.557887 3.050356 -2.568263 7.641364 -2.547888 -5.501711 58.757790 2.450181 4.416200 8.071255 1.708757 8.728366 
-0.025333 53.303661 -9.319867 -12.510644 -7.810923 -8.201732 33.269444 6.621008 1.721532 -0.051806 3.007183 -1.593257 -9.865615 -6.820158 0.947023 17.980747 -9.280008 6.856541 -13.645646 -14.657973 -0.781132 -60.234795 7.139641 -14.720039 -24.190094 -5.000000 35.348083 -9.005204 0.565866 -2.986262 16.506866 10.779003 -0.562517 61.109341 -3.901380 -9.187710 21.666256 5.000000 24.793301 23.228249 -21.711176 -2.173030 7.536114 11.589294 6.397490 11.364140 -6.670166 -1.636140 -11.052989 2.498620 -2.842679 5.362511 -2.310661 -6.340441 58.691139 2.803072 5.102459 6.836495 1.883764 8.896654 
-0.044187 53.422333 -8.300822 -12.531193 -7.627353 -7.666135 33.211529 6.493284 1.406405 -0.111413 3.094858 -1.866974 -9.595490 -6.710180 0.890000 18.142204 -9.290460 6.817997 -13.786958 -14.287385 -0.759571 -60.131866 7.089304 -14.432849 -24.192810 -5.000000 35.102959 -9.424397 0.621736 -2.221331 16.446434 10.593713 -0.552919 61.005848 -4.183877 -9.469978 22.174606 5.000000 24.939253 23.793123 -21.634630 -2.527695 9.433190 11.367277 6.685772 10.055309 -6.805312 -1.519155 -11.563644 1.841733 -3.250795 3.220938 -2.187158 -7.150194 57.997555 3.241045 5.703197 5.710289 1.956824 9.175830 
-0.070405 53.488739 -7.293382 -12.507210 -7.357448 -7.002212 33.122364 6.321367 1.041964 -0.152283 3.172719 -2.111378 -9.385378 -6.529678 0.843072 18.343803 -9.263972 6.678369 -13.908624 -13.897294 -0.739444 -59.986492 7.019768 -14.112382 -24.382458 -5.000000 34.799496 -9.706761 0.572876 -1.633391 16.346786 10.388916 -0.540543 60.869404 -4.444155 -9.698559 22.837502 5.000000 25.006189 24.410753 -21.444962 -3.010828 11.193830 11.138026 6.744901 8.749409 -6.969157 -1.342446 -12.124635 1.263362 -3.605478 1.239826 -2.187396 -8.062447 56.342117 3.748783 6.171043 4.678030 1.794232 9.385638 
-0.096622 53.555141 -6.285949 -12.487760 -7.085917 -6.328722 33.025944 6.166885 0.685536 -0.203400 3.250538 -2.365546 -9.164639 -6.350639 0.785446 18.535498 -9.237418 6.538746 -14.040089 -13.497447 -0.716499 -59.842983 6.953741 -13.800616 -24.563414 -5.000000 34.496193 -9.991055 0.529909 -1.045207 16.257036 10.193872 -0.530459 60.744171 -4.717262 -9.929670 23.509047 5.000000 25.065290 25.018467 -21.244820 -3.495482 12.962933 10.905437 6.805087 7.442478 -7.145283 -1.173694 -12.703521 0.730390 -3.955135 -0.741529 -2.232822 -8.926452 54.688683 4.277241 6.661997 3.662143 1.641140 9.637961 
-0.126334 53.545887 -5.292562 -12.382013 -6.697639 -5.517323 32.848202 6.021894 0.295571 -0.260369 3.279599 -2.570971 -8.955238 -6.189438 0.741423 18.714483 -9.174391 6.261071 -14.183079 -13.224372 -0.702408 -59.568546 6.928113 -13.490606 -25.040848 -5.000000 34.025799 -9.944343 0.240550 -0.607283 16.177721 10.067094 -0.523902 60.441547 -4.998538 -10.101879 24.361464 5.000000 24.942257 25.602272 -21.071981 -4.036519 14.425836 10.689823 6.545341 6.388391 -7.327233 -1.113622 -13.447439 0.321296 -4.063804 -2.358318 -2.482827 -9.651646 51.485050 4.863096 6.703527 3.130820 1.334989 9.886810 
-0.156044 53.536648 -4.299184 -12.275083 -6.316783 -4.697587 32.683746 5.877058 -0.072720 -0.327234 3.308641 -2.776397 -8.736138 -6.018579 0.694896 18.902054 -9.101208 5.993035 -14.326025 -12.941541 -0.685610 -59.293255 6.886488 -13.177733 -25.520342 -5.000000 33.556255 -9.892458 -0.052796 -0.189061 16.108276 9.950068 -0.517847 60.129707 -5.283601 -10.270432 25.222891 5.000000 24.819263 26.184303 -20.900368 -4.579138 15.906995 10.498026 6.253748 5.324306 -7.531342 -1.010940 -14.201258 -0.103841 -4.176331 -3.970739 -2.769422 -10.350224 48.294445 5.485412 6.672137 2.580407 1.009232 10.137888 
-0.191353 53.483379 -3.304849 -12.124031 -5.904785 -3.839261 32.504803 5.690358 -0.253394 -0.393732 3.308363 -3.079467 -8.586921 -5.875219 0.663391 19.048164 -8.990252 5.635149 -14.460351 -12.746480 -0.675556 -58.940578 6.837843 -12.857941 -26.140553 -5.000000 33.002632 -9.716489 -0.417458 -0.007847 16.031345 9.898610 -0.524568 59.712723 -5.530921 -10.346650 26.127987 5.000000 24.592945 26.668198 -20.703279 -5.241653 17.177010 10.302453 5.682809 4.478616 -7.692475 -0.945654 -14.947905 -0.202378 -4.032189 -5.229929 -3.072157 -10.938061 44.148430 6.015490 6.395000 2.117720 0.543689 10.344155 
